<svg width="123" height="96" viewBox="0 0 123 96" fill="none" xmlns="http://www.w3.org/2000/svg">
<path fill-rule="evenodd" clip-rule="evenodd" d="M61.5493 5.60083C61.5493 3.5474 61.4483 1.62862 61.3137 1.29199C61.078 0.787052 60.4721 0.719727 55.4227 0.719727C48.9594 0.753389 47.8485 1.02269 45.8624 2.94147C43.5734 5.16322 43.506 5.60083 43.607 17.5175L43.708 28.0876L46.3001 28.0203C51.4168 27.8856 56.6009 29.939 60.2028 33.541C63.2998 36.6379 65.7571 41.8893 65.7571 45.3903V46.8378H63.7374H61.7176V45.6596C61.7176 44.1111 60.6067 40.7785 59.4959 39.028C56.8028 34.7865 51.8881 32.0598 46.906 32.0261C46.6644 32.0261 46.4401 32.0238 46.2318 32.0215C45.1999 32.0106 44.561 32.0038 44.1662 32.3109C43.5244 32.8102 43.528 34.139 43.5372 37.628C43.5384 38.0799 43.5397 38.5681 43.5397 39.0953C43.5397 44.4141 43.6407 45.9962 44.0783 47.0397C44.7516 48.6892 46.0308 50.0694 47.7476 50.9783C49.0267 51.6852 49.599 51.7189 59.6305 51.8199C69.5274 51.9209 70.167 51.8872 70.4026 51.3149C70.5373 50.9783 70.6383 48.9585 70.6383 46.8378C70.6046 42.6636 69.9313 39.6676 68.2145 36.234C64.7473 29.4004 57.6444 24.25 50.4406 23.3411L48.4208 23.1055L48.3198 21.0521L48.2188 19.0323L50.6426 19.3016C59.7988 20.4125 68.3155 26.7411 72.2877 35.4597C74.1392 39.4656 74.6778 42.0577 74.7115 47.1744L74.7788 51.7189L77.1352 51.8199L79.4916 51.9209L79.6262 49.4635C79.9629 41.721 78.1451 34.7192 74.3075 28.9965L72.456 26.2025L73.8362 24.25C75.856 21.355 77.7748 17.1135 78.7173 13.3433C79.4242 10.6503 79.5926 9.13543 79.6262 5.70182C79.6262 3.37909 79.5252 1.29199 79.3906 1.09002C79.2896 0.888041 78.1451 0.719727 76.8995 0.719727H74.6105L74.7788 4.05234C75.0481 9.43839 73.7016 15.0601 71.1095 19.4026L70.9738 19.6334C69.8969 21.4655 69.4552 22.2168 68.947 22.265C68.5936 22.2984 68.2081 21.992 67.5545 21.4724L67.4066 21.355L65.8245 20.1432L67.0027 18.2917C69.9987 13.6462 71.4462 7.04833 70.6046 1.96525L70.369 0.719727H67.8779H65.3532L65.5888 1.96525C65.9591 4.05234 65.8245 8.19287 65.2859 10.2463C64.7136 12.2997 63.4344 15.0601 62.2899 16.6086C61.6166 17.5175 61.583 17.5175 60.4048 17.0125C59.7315 16.7096 58.8563 16.3393 58.4187 16.171L57.6444 15.868L58.6543 14.6225C59.2266 13.9155 60.1018 12.4344 60.6067 11.3235C61.4483 9.50572 61.5493 8.93345 61.5493 5.60083ZM13.7481 79.558L13.5798 71.5463L13.4115 63.5009L10.7185 63.3999C9.20365 63.3662 7.8908 63.3999 7.75615 63.5345C7.62149 63.6692 7.52051 70.9403 7.52051 79.7263V95.6488H10.5502H13.5798V91.5083V87.3678L16.1045 84.8767C17.6193 83.3619 18.7302 82.5203 18.8985 82.6887C18.9343 82.7316 19.0765 82.8991 19.3063 83.17L19.3081 83.1721C20.1609 84.1772 22.2155 86.5988 24.5202 89.3539L29.8389 95.6825L34.922 95.5815L40.0051 95.4805L41.5199 91.8449L43.0348 88.243H50.9455H58.8899L60.4048 91.8449L61.9533 95.4805L67.2047 95.5815L72.4897 95.6825V91.1717V86.6609L77.8084 86.4589C85.1806 86.1559 88.1092 85.2134 90.634 82.352L91.6775 81.1402V88.4113V95.6488H103.729H115.746L115.713 93.5281L115.706 93.283C115.674 92.2154 115.643 91.1477 115.612 90.8351C115.578 90.2965 114.905 90.2628 106.657 90.2628H97.7368V86.0549V81.8471H105.479H113.222V79.3224V76.7977H105.479H97.7368V72.7581V68.7186H106.489H115.275L115.174 66.0929L115.073 63.5009H103.459H91.8458L91.7448 66.0929L91.6438 68.6849L90.432 67.3384C89.0518 65.8236 87.3013 64.8137 84.7766 64.1068C82.9588 63.5682 68.8878 63.0632 67.3056 63.4672L66.4304 63.6692V77.4036L66.3967 91.1044L65.2859 88.5797C62.0879 81.3758 55.9276 67.8434 54.9514 65.8236L53.8069 63.5009H50.9455H48.0842L47.4109 64.8474C47.0406 65.6216 44.0783 72.1522 40.8467 79.4234C37.615 86.6609 34.8547 92.6192 34.7537 92.6192C34.6527 92.6192 31.8924 89.2866 28.6271 85.2134L22.6688 77.8412L25.2945 75.0472C34.2824 65.5206 35.7636 63.8712 35.5953 63.6019C35.4943 63.4672 34.0805 63.3326 32.431 63.3326H29.435L24.9242 67.9444C22.4331 70.5027 18.8985 74.172 17.0807 76.0908L13.7481 79.558ZM49.0604 6.47607C48.5218 7.04833 48.3871 7.82258 48.3198 10.6839L48.1852 14.1848H50.2049C52.1237 14.1848 52.292 14.1175 53.7059 12.7373C55.288 11.1889 56.4999 9.03444 56.8365 7.01467L57.0721 5.76915H53.4029C50.0703 5.76915 49.6327 5.83647 49.0604 6.47607ZM49.498 46.3665C48.5891 45.6596 48.2525 44.0101 48.2525 40.3072V37.0082L49.195 37.2439C52.9653 38.1864 56.1632 41.6201 56.8702 45.5586L57.0721 46.8378H53.6049C51.1812 46.8041 49.902 46.6695 49.498 46.3665ZM72.5234 74.5086C72.4897 77.7066 72.6244 80.5342 72.7927 80.8036C73.2303 81.4768 82.3529 81.1738 83.7667 80.4333C87.4697 78.4472 88.3112 73.7344 85.5172 70.8057C83.9687 69.2235 81.9153 68.7186 76.8322 68.7186H72.557L72.5234 74.5086ZM45.2902 83.0253L48.0169 76.562C49.5317 72.9938 50.8445 70.0651 50.9455 70.0651C51.0465 70.0651 52.3594 72.9938 53.8742 76.562L56.6009 83.0253L53.7732 83.1263C52.2247 83.16 49.6663 83.16 48.1178 83.1263L45.2902 83.0253Z" fill="white"/>
</svg>
