<svg width="41" height="40" viewBox="0 0 41 40" fill="none" xmlns="http://www.w3.org/2000/svg">
<rect x="1" y="0.5" width="39" height="39" rx="19.5" stroke="white"/>
<g clip-path="url(#clip0_781_834)">
<path d="M20.504 15.6873C18.119 15.6873 16.1952 17.6111 16.1952 19.9961C16.1952 22.3811 18.119 24.3048 20.504 24.3048C22.889 24.3048 24.8127 22.3811 24.8127 19.9961C24.8127 17.6111 22.889 15.6873 20.504 15.6873ZM20.504 22.7973C18.9627 22.7973 17.7027 21.5411 17.7027 19.9961C17.7027 18.4511 18.959 17.1948 20.504 17.1948C22.049 17.1948 23.3052 18.4511 23.3052 19.9961C23.3052 21.5411 22.0452 22.7973 20.504 22.7973ZM25.994 15.5111C25.994 16.0698 25.544 16.5161 24.989 16.5161C24.4302 16.5161 23.984 16.0661 23.984 15.5111C23.984 14.9561 24.434 14.5061 24.989 14.5061C25.544 14.5061 25.994 14.9561 25.994 15.5111ZM28.8477 16.5311C28.784 15.1848 28.4765 13.9923 27.4902 13.0098C26.5077 12.0273 25.3152 11.7198 23.969 11.6523C22.5815 11.5736 18.4227 11.5736 17.0352 11.6523C15.6927 11.7161 14.5002 12.0236 13.514 13.0061C12.5277 13.9886 12.224 15.1811 12.1565 16.5273C12.0777 17.9148 12.0777 22.0736 12.1565 23.4611C12.2202 24.8073 12.5277 25.9998 13.514 26.9823C14.5002 27.9648 15.689 28.2723 17.0352 28.3398C18.4227 28.4186 22.5815 28.4186 23.969 28.3398C25.3152 28.2761 26.5077 27.9686 27.4902 26.9823C28.4727 25.9998 28.7802 24.8073 28.8477 23.4611C28.9265 22.0736 28.9265 17.9186 28.8477 16.5311ZM27.0552 24.9498C26.7627 25.6848 26.1965 26.2511 25.4577 26.5473C24.3515 26.9861 21.7265 26.8848 20.504 26.8848C19.2815 26.8848 16.6527 26.9823 15.5502 26.5473C14.8152 26.2548 14.249 25.6886 13.9527 24.9498C13.514 23.8436 13.6152 21.2186 13.6152 19.9961C13.6152 18.7736 13.5177 16.1448 13.9527 15.0423C14.2452 14.3073 14.8115 13.7411 15.5502 13.4448C16.6565 13.0061 19.2815 13.1073 20.504 13.1073C21.7265 13.1073 24.3552 13.0098 25.4577 13.4448C26.1927 13.7373 26.759 14.3036 27.0552 15.0423C27.494 16.1486 27.3927 18.7736 27.3927 19.9961C27.3927 21.2186 27.494 23.8473 27.0552 24.9498Z" fill="white"/>
</g>
<defs>
<clipPath id="clip0_781_834">
<rect width="16.8" height="19.2" fill="white" transform="translate(12.1001 10.3999)"/>
</clipPath>
</defs>
</svg>
