<svg width="15" height="17" viewBox="0 0 15 17" fill="none" xmlns="http://www.w3.org/2000/svg">
<path d="M7.49967 16.2702C7.30523 16.2702 7.11079 16.2355 6.91634 16.166C6.7219 16.0966 6.54829 15.9924 6.39551 15.8535C5.49273 15.0202 4.69412 14.2077 3.99967 13.416C3.30523 12.6243 2.72537 11.857 2.26009 11.1139C1.79481 10.3709 1.44065 9.6556 1.19759 8.9681C0.954536 8.2806 0.833008 7.62435 0.833008 6.99935C0.833008 4.91602 1.50315 3.25629 2.84342 2.02018C4.1837 0.784071 5.73579 0.166016 7.49967 0.166016C9.26356 0.166016 10.8156 0.784071 12.1559 2.02018C13.4962 3.25629 14.1663 4.91602 14.1663 6.99935C14.1663 7.62435 14.0448 8.2806 13.8018 8.9681C13.5587 9.6556 13.2045 10.3709 12.7393 11.1139C12.274 11.857 11.6941 12.6243 10.9997 13.416C10.3052 14.2077 9.50662 15.0202 8.60384 15.8535C8.45106 15.9924 8.27745 16.0966 8.08301 16.166C7.88856 16.2355 7.69412 16.2702 7.49967 16.2702ZM7.49967 8.49935C7.95801 8.49935 8.35037 8.33615 8.67676 8.00977C9.00315 7.68338 9.16634 7.29102 9.16634 6.83268C9.16634 6.37435 9.00315 5.98199 8.67676 5.6556C8.35037 5.32921 7.95801 5.16602 7.49967 5.16602C7.04134 5.16602 6.64898 5.32921 6.32259 5.6556C5.9962 5.98199 5.83301 6.37435 5.83301 6.83268C5.83301 7.29102 5.9962 7.68338 6.32259 8.00977C6.64898 8.33615 7.04134 8.49935 7.49967 8.49935Z" fill="#EEEBE2"/>
</svg>
